<svg xmlns="http://www.w3.org/2000/svg" xmlns:xlink="http://www.w3.org/1999/xlink" viewBox="0 0 1290.56 216.55"><defs><style>.cls-1{fill:url(#linear-gradient);}.cls-2{fill:url(#linear-gradient-2);}.cls-3{fill:url(#linear-gradient-3);}.cls-4{fill:#ac06c9;}.cls-5{fill:#8618ef;}</style><linearGradient id="linear-gradient" x1="100.64" y1="87.42" x2="242.12" y2="200.82" gradientUnits="userSpaceOnUse"><stop offset="0" stop-color="#ac06c9"/><stop offset="1" stop-color="#8618ef"/></linearGradient><linearGradient id="linear-gradient-2" x1="75.59" y1="118.68" x2="217.07" y2="232.08" xlink:href="#linear-gradient"/><linearGradient id="linear-gradient-3" x1="102.68" y1="84.87" x2="244.16" y2="198.27" xlink:href="#linear-gradient"/></defs><title>Asset 2</title><g id="Layer_2" data-name="Layer 2"><g id="Layer_1-2" data-name="Layer 1"><rect class="cls-1" x="60.76" y="68" width="49.69" height="14.73" rx="3.94"/><path class="cls-2" d="M159.36,68H146.81a3.93,3.93,0,0,0-3.94,3.94v6.85a3.93,3.93,0,0,0,3.94,3.94h6.25a3.42,3.42,0,0,1,3.42,3.42V155.5a3.42,3.42,0,0,1-3.42,3.42H18.15a3.42,3.42,0,0,1-3.42-3.42V86.15a3.42,3.42,0,0,1,3.42-3.42H24.4a3.94,3.94,0,0,0,4-3.94V71.94a3.94,3.94,0,0,0-4-3.94H11.86A11.86,11.86,0,0,0,0,79.86V161.8a11.86,11.86,0,0,0,11.86,11.86H57.74a6.85,6.85,0,0,1-2,13.4H38.83A12.94,12.94,0,0,0,25.88,200H145.33a12.94,12.94,0,0,0-12.94-12.94H115.62a6.94,6.94,0,0,1-7-6.75,6.84,6.84,0,0,1,4.85-6.65h45.89a11.86,11.86,0,0,0,11.86-11.86V79.86A11.86,11.86,0,0,0,159.36,68Z"/><path class="cls-3" d="M44.55,119.5a12.73,12.73,0,0,0,7.37-23.11v-48a33.69,33.69,0,0,1,67.38,0v48a12.73,12.73,0,1,0,14.73,0v-48a48.42,48.42,0,0,0-96.84,0v48a12.73,12.73,0,0,0,7.36,23.11Z"/><path class="cls-4" d="M298.35,176.92q-33.63,0-55.28-22.06-21.85-22.29-21.85-54t21.85-54q21.65-22.08,55.28-22.07a73.47,73.47,0,0,1,37.2,9.77A69.88,69.88,0,0,1,362,60.91l-13,7.56A52.21,52.21,0,0,0,328.4,47a58.41,58.41,0,0,0-30-8q-27.75,0-45,17.86Q235.93,75,235.93,100.84t17.44,43.93q17.24,17.86,45,17.86a58.41,58.41,0,0,0,30-8A52.15,52.15,0,0,0,349,133.21l13,7.35A67.13,67.13,0,0,1,335.76,167,73.91,73.91,0,0,1,298.35,176.92Z"/><path class="cls-4" d="M425.71,157.38l34.05-88.07h14.71l-45,114.76q-6.31,16-17.55,24.69A35.08,35.08,0,0,1,387,216.44v-13q18.91,2.32,28.79-21.85l2.74-6.52L371.49,69.31H386.2Z"/><path class="cls-4" d="M547.61,66.79a51.74,51.74,0,0,1,38.25,16q16,16,16,39.09t-16,39.09a51.73,51.73,0,0,1-38.25,16q-27.95,0-42.45-23.12v20.6H491.29V27.28h13.87V89.91Q519.65,66.8,547.61,66.79Zm-30.47,84.7q12,12,29.42,12t29.42-12a41.12,41.12,0,0,0,12-29.63q0-17.44-12-29.43a41.6,41.6,0,0,0-58.84,0q-12,12-12,29.43A41.12,41.12,0,0,0,517.14,151.49Z"/><path class="cls-4" d="M673.5,66.79q23.54,0,37.62,16.61,14.5,16.39,14.51,38.88c0,.7-.15,2.87-.43,6.51H632.94Q635,144.56,646.39,154t28.37,9.46q24,0,33.84-17.86l12.19,7.14a48.31,48.31,0,0,1-19,17.76,57.23,57.23,0,0,1-27.22,6.41q-24.79,0-40.35-15.55t-15.55-39.51q0-23.74,15.34-39.3Q649.34,66.79,673.5,66.79Zm0,13.45q-16.39,0-27.43,9.67t-13.13,25.43h78.39Q709,98.53,698.51,89.49A37.63,37.63,0,0,0,673.5,80.24Z"/><path class="cls-4" d="M761.56,69.31V86.76q9.68-19.12,33.21-19.13V81.08q-15.13,0-24.17,8.73t-9,26.16V174.4H747.69V69.31Z"/><path class="cls-5" d="M862.24,177.13q-20.61,0-35.21-9.56A50.53,50.53,0,0,1,806.54,141l16.81-9.66Q831.77,158,862.66,158q14.91,0,23-6.1t8.09-16.6q0-10.29-8-15.76-7.15-4.85-26.7-11.14L845,103.78q-4.62-1.89-12.19-5.46-7.35-3.78-10.72-7.57-9.24-10.08-9.24-24.59,0-19.33,13.45-30.26,13.44-11.35,32.78-11.35,17.24,0,30.27,8.62A52.9,52.9,0,0,1,908.89,56.7L892.5,66.16q-9.45-22.69-33.42-22.7-12,0-19.33,5.89t-7.36,16q0,9.68,6.94,14.71,7.14,5.27,24,10.51l8.61,2.73q7.15,2.74,7.78,3a112.47,112.47,0,0,1,14.71,6.93,43.4,43.4,0,0,1,11.35,9.67q7.35,7.37,7.36,22.07,0,19.34-14.08,30.89Q884.73,177.14,862.24,177.13Z"/><path class="cls-5" d="M986.65,66.58q18.5,0,29.64,11.67t11.14,31.63V174.4h-18.29V110.93q0-12.62-6.93-19.76T983.08,84Q969,84,960.8,92.75t-8.19,26v55.7H934.32V27.28h18.29V84.45Q963.53,66.59,986.65,66.58Z"/><path class="cls-5" d="M1141.55,161.16q-16,16-39.3,16t-39.3-16q-16-16-16-39.3t16-39.3q16-16,39.3-16t39.3,16q16.18,16.18,16.18,39.3T1141.55,161.16Zm-39.3-1.89q15.76,0,26.48-10.72t10.72-26.69q0-16-10.72-26.69t-26.48-10.72A35.69,35.69,0,0,0,1076,95.17q-10.73,10.71-10.72,26.69T1076,148.55A35.69,35.69,0,0,0,1102.25,159.27Z"/><path class="cls-5" d="M1237.39,66.58q22.06,0,37.62,16.19t15.55,39.09q0,23.12-15.55,39.3a50.14,50.14,0,0,1-37.62,16q-26.07,0-39.73-20.8v60.11h-18.28V69.31h18.28V87.39Q1211.32,66.58,1237.39,66.58Zm-2.31,92.9q15.75,0,26.48-10.72a37.42,37.42,0,0,0,10.72-26.9q0-16-10.72-26.69a35.62,35.62,0,0,0-26.48-10.93q-16,0-26.7,10.93-10.71,10.71-10.72,26.69a37.42,37.42,0,0,0,10.72,26.9Q1219.11,159.49,1235.08,159.48Z"/></g></g></svg>