<svg xmlns="http://www.w3.org/2000/svg" xmlns:xlink="http://www.w3.org/1999/xlink" viewBox="0 0 684.87 800"><defs><style>.cls-1{fill:#ffffff;}.cls-2{fill:#ffffff}.cls-3{fill:#ffffff;}</style><linearGradient id="linear-gradient" x1="243.05" y1="301.46" x2="441.82" y2="301.46" gradientUnits="userSpaceOnUse"><stop offset="0" stop-color="#da2fed"/><stop offset="0.9" stop-color="#8618ef"/></linearGradient><linearGradient id="linear-gradient-2" x1="0" y1="536" x2="684.87" y2="536" xlink:href="#linear-gradient"/><linearGradient id="linear-gradient-3" x1="127.3" y1="238.99" x2="557.57" y2="238.99" xlink:href="#linear-gradient"/></defs><title>Asset 1</title><g id="Layer_2" data-name="Layer 2"><g id="Layer_1-2" data-name="Layer 1"><rect class="cls-1" x="243.05" y="271.99" width="198.77" height="58.93" rx="15.77"/><path class="cls-2" d="M637.44,272H587.25a15.78,15.78,0,0,0-15.77,15.78v27.39a15.77,15.77,0,0,0,15.77,15.77h25a13.67,13.67,0,0,1,13.67,13.67V622a13.67,13.67,0,0,1-13.67,13.67H72.61A13.68,13.68,0,0,1,58.93,622V344.6a13.68,13.68,0,0,1,13.68-13.67h25a15.77,15.77,0,0,0,15.77-15.77V287.77A15.78,15.78,0,0,0,97.62,272H47.43A47.44,47.44,0,0,0,0,319.42V647.19a47.44,47.44,0,0,0,47.43,47.44H231a27.39,27.39,0,0,1-8,53.6H155.3A51.76,51.76,0,0,0,103.54,800H581.33a51.77,51.77,0,0,0-51.77-51.77H462.47c-15.07,0-27.78-11.91-28-27a27.34,27.34,0,0,1,19.42-26.62H637.44a47.44,47.44,0,0,0,47.43-47.44V319.42A47.44,47.44,0,0,0,637.44,272Z"/><path class="cls-3" d="M178.22,478a50.91,50.91,0,0,0,29.47-92.43V193.68c0-74.3,60.44-134.75,134.74-134.75s134.75,60.45,134.75,134.75V385.55a50.92,50.92,0,1,0,58.94,0V193.68C536.12,86.88,449.23,0,342.43,0S148.75,86.88,148.75,193.68V385.55A50.91,50.91,0,0,0,178.22,478Z"/></g></g></svg>